<svg
  xmlns="http://www.w3.org/2000/svg"
  width="24"
  height="24"
  viewBox="0 0 24 24"
  fill="none"
  stroke="currentColor"
  stroke-width="2"
  stroke-linecap="round"
  stroke-linejoin="round"
>
  <path d="M22 2A12.83 12.83 0 0 0 11 8h0a22.31 22.31 0 0 0-2 4l3 3a22 22 0 0 0 4-2A12.83 12.83 0 0 0 22 2Z"/>
  <path d="M2 22c.38-2 1.5-6 4-6a2 2 0 0 1 2 2C8 20.5 4 21.62 2 22Z"/>
  <path d="M9 12H4A6.19 6.19 0 0 1 6 8c2.25-2.25 5 0 5 0"/>
  <path d="M12 15v5a6.19 6.19 0 0 0 4-2c2.25-2.25 0-5 0-5"/>
</svg>
