<svg
  xmlns="http://www.w3.org/2000/svg"
  width="24"
  height="24"
  viewBox="0 0 24 24"
  fill="none"
  stroke="currentColor"
  stroke-width="2"
  stroke-linecap="round"
  stroke-linejoin="round"
>
  <path d="M22 2C19.81 1.98 17.64 2.52 15.72 3.57C13.79 4.62 12.17 6.14 11 8C10.2 9.26 9.53 10.6 9 12L12 15C13.4 14.47 14.74 13.8 16 13C17.86 11.83 19.38 10.21 20.43 8.286C21.48 6.36 22.02 4.19 22 2Z"/>
  <path d="M2 22c.38-2 1.5-6 4-6a2 2 0 0 1 2 2C8 20.5 4 21.62 2 22Z"/>
  <path d="M9 12H4A6.19 6.19 0 0 1 6 8c2.25-2.25 5 0 5 0"/>
  <path d="M12 15v5a6.19 6.19 0 0 0 4-2c2.25-2.25 0-5 0-5"/>
</svg>
